<mxfile host="app.diagrams.net" modified="2023-12-10T02:56:46.413Z" agent="Mozilla/5.0 (Windows NT 10.0; Win64; x64) AppleWebKit/537.36 (KHTML, like Gecko) Chrome/119.0.0.0 Safari/537.36" etag="PRKZCCT_TmLvlUnNSIP3" version="22.1.7" type="google">
  <diagram name="ページ1" id="g3WhKNP1LegcACHdFftD">
    <mxGraphModel dx="1434" dy="746" grid="1" gridSize="10" guides="1" tooltips="1" connect="1" arrows="1" fold="1" page="1" pageScale="1" pageWidth="827" pageHeight="1169" math="0" shadow="0">
      <root>
        <mxCell id="0" />
        <mxCell id="1" parent="0" />
        <mxCell id="0ACrXENyakCgsGlyyzYP-3" style="edgeStyle=orthogonalEdgeStyle;rounded=0;orthogonalLoop=1;jettySize=auto;html=1;" parent="1" source="0ACrXENyakCgsGlyyzYP-1" target="0ACrXENyakCgsGlyyzYP-2" edge="1">
          <mxGeometry relative="1" as="geometry" />
        </mxCell>
        <mxCell id="0ACrXENyakCgsGlyyzYP-1" value="呼び出し" style="rounded=1;whiteSpace=wrap;html=1;arcSize=50;" parent="1" vertex="1">
          <mxGeometry x="160" y="60" width="120" height="60" as="geometry" />
        </mxCell>
        <mxCell id="0ACrXENyakCgsGlyyzYP-5" style="edgeStyle=orthogonalEdgeStyle;rounded=0;orthogonalLoop=1;jettySize=auto;html=1;" parent="1" source="0ACrXENyakCgsGlyyzYP-2" target="0ACrXENyakCgsGlyyzYP-4" edge="1">
          <mxGeometry relative="1" as="geometry" />
        </mxCell>
        <mxCell id="0ACrXENyakCgsGlyyzYP-2" value="一覧表示内容・スタイル&lt;br&gt;受け取り" style="rounded=1;whiteSpace=wrap;html=1;arcSize=50;" parent="1" vertex="1">
          <mxGeometry x="140" y="180" width="160" height="60" as="geometry" />
        </mxCell>
        <mxCell id="0ACrXENyakCgsGlyyzYP-8" style="edgeStyle=orthogonalEdgeStyle;rounded=0;orthogonalLoop=1;jettySize=auto;html=1;" parent="1" source="0ACrXENyakCgsGlyyzYP-4" target="0ACrXENyakCgsGlyyzYP-7" edge="1">
          <mxGeometry relative="1" as="geometry" />
        </mxCell>
        <mxCell id="0ACrXENyakCgsGlyyzYP-4" value="一覧表示生成" style="rounded=1;whiteSpace=wrap;html=1;arcSize=50;" parent="1" vertex="1">
          <mxGeometry x="160" y="300" width="120" height="60" as="geometry" />
        </mxCell>
        <mxCell id="0ACrXENyakCgsGlyyzYP-7" value="処理終了" style="rounded=1;whiteSpace=wrap;html=1;arcSize=50;" parent="1" vertex="1">
          <mxGeometry x="160" y="420" width="120" height="60" as="geometry" />
        </mxCell>
      </root>
    </mxGraphModel>
  </diagram>
</mxfile>
